<svg width="256" height="256" xmlns="http://www.w3.org/2000/svg">
 <defs>
  <linearGradient y2="Infinity" y1="Infinity" x2="Infinity" x1="Infinity" id="SVGID_7_">
   <stop stop-color="#FEE79F" stop-opacity="0.4" offset="0"/>
   <stop stop-color="#FEE79F" stop-opacity="0.8" offset="1"/>
  </linearGradient>
 </defs>
 <g>
  <title>background</title>
  <rect fill="none" id="canvas_background" height="402" width="582" y="-1" x="-1"/>
 </g>
 <g>
  <title>Layer 1</title>
  <circle stroke="#000000" stroke-opacity="0" id="svg_8" fill="#db3636" r="100" cy="130.2" cx="125.8"/>
  <circle fill="#ffffff" id="svg_9" r="44" cy="191.7" cx="123.7" class="st38"/>
  <circle id="svg_10" fill="url(#SVGID_7_)" r="44" cy="191.7" cx="123.7"/>
  <path opacity="0.2" id="svg_11" d="m162.3,170.7c3.7,6.7 5.7,14.5 5.3,22.8c-0.9,23.2 -20.2,42 -43.4,42.3c-2.2,0 -4.3,-0.1 -6.4,-0.4c-1.6,-0.2 -2.1,2.1 -0.5,2.6c4.5,1.3 9.2,1.9 14.2,1.7c22.5,-0.9 41,-19.1 42.2,-41.6c0.6,-10.9 -2.9,-21 -8.9,-28.9c-1.2,-1.5 -3.4,-0.1 -2.5,1.5z" class="st67"/>
  <path fill="#ffffff" id="svg_14" d="m145.5,85.7c-8,7.9 -9.7,18.1 -10.2,22.8c-0.1,0.6 0.4,1.2 0.9,1.3l8.5,2c1.3,0.3 24.6,4.7 38.8,-11.4c6.1,-6.8 8,-14.5 8.7,-18.9c0.1,-0.5 -0.2,-1.1 -0.7,-1.3c-16.6,-7.7 -35,-5.4 -46,5.5z" class="st38"/>
  <path fill="#ffffff" id="svg_16" d="m54,101.4c-0.5,0.2 -0.7,0.7 -0.6,1.2c0.7,4.4 2.6,12.1 8.7,18.9c14.3,16 37.5,11.6 38.8,11.4l8.6,-2c0.6,-0.1 0.9,-0.6 0.9,-1.2c-0.4,-4.7 -2.1,-14.8 -10.2,-22.8c-11.1,-10.9 -29.5,-13.2 -46.2,-5.5z" class="st38"/>
  <path fill="#ffffff" id="svg_17" d="m118.2,72c3.7,0.3 16.3,-1.5 20.8,-12.5s4.1,-33.5 3.1,-34.3c-1,-0.7 -10.7,3.3 -11.1,3.3s-9.6,-11.2 -11.8,-10.6c-2.2,0.6 -7.9,10.2 -9.4,10.3c-1.5,0.1 -9.4,-4.7 -10,-4.8c-0.6,-0.1 -5,11.5 -3.5,25s7.4,21.4 21.9,23.6z" class="st38"/>
  <path fill="#58595b" id="svg_18" d="m129.3,174.8c-1.7,-0.4 -3.3,-0.9 -5,-1c-1.7,-0.2 -3.5,0 -5.1,0.8c-1.6,0.8 -3.1,1.7 -4.4,3c-1.3,1.3 -2.3,3 -2.6,4.9c-0.1,0.5 -0.1,0.9 -0.1,1.4c0,0.5 0.1,0.9 0.1,1.4c0.2,0.9 0.5,1.9 1,2.7c1,1.7 2.5,2.9 4.1,3.7c1.6,0.8 3.3,1.4 5.1,1.7c0.9,0.2 1.8,0.2 2.7,0.3l2.3,0c1.4,0 2.8,0.1 4,0.5c1.2,0.5 2.3,1.4 2.7,2.6c0.9,2.4 0.7,5.1 -0.7,7.5c-0.2,0.3 -0.4,0.5 -0.6,0.8c-0.2,0.2 -0.5,0.5 -0.8,0.7c-0.2,0.3 -0.5,0.5 -0.8,0.6c-0.3,0.2 -0.6,0.4 -0.9,0.5c-1.3,0.6 -2.6,0.8 -4,0.9c-2.8,0 -5.3,-0.9 -7.7,-2.1c-0.5,-0.3 -1,-0.5 -1.5,-0.9c-0.5,-0.3 -0.9,-0.7 -1.2,-1.2c-0.4,-0.4 -0.7,-0.9 -1.2,-1.2c-0.6,-0.7 -1.3,-1.2 -2.1,-0.8c-0.8,0.4 -0.6,1.6 -0.4,2.3c0.2,0.6 -0.2,-0.7 0,0c0.6,1.7 2.1,2.8 3.5,3.6c1.6,1 3.2,2.1 5,2.5c3.2,0.7 6.5,0.8 9.8,-0.1c1.8,-0.5 3.3,-1.6 4.6,-3c1.3,-1.5 2.1,-3.3 2.3,-5.1c0.2,-1.8 0.2,-3.7 -0.4,-5.5c-0.3,-0.9 -0.7,-1.8 -1.3,-2.6c-0.6,-0.8 -1.3,-1.5 -2.2,-1.9c-1.6,-1 -3.5,-1 -5.1,-0.9c-0.8,0 -1.6,0.1 -2.4,0.1c-0.4,0 -0.8,0 -1.2,-0.1c-0.3,-0.1 -0.7,-0.1 -1,-0.3c-0.9,-0.4 -1.8,-0.6 -2.7,-0.8c-0.9,-0.2 -1.8,-0.5 -2.5,-1.1c-0.8,-0.7 -1.6,-1.2 -2.3,-2c-0.9,-1.1 -0.7,-2.6 -0.8,-3.9c0,-1.2 0.4,-2.5 1.3,-3.5c0.9,-1 2.2,-1.7 3.5,-2c2.2,-0.6 4.4,-0.2 6.6,-0.1c1.4,0.1 3.1,0.9 4.1,1.9c1,1 1.3,2.2 1.4,2.4c0.1,0.1 0.2,0.2 0.4,0.3c0.1,0.1 0.3,0.2 0.4,0.3c0.3,0.2 0.7,0.3 1,0.3c0.8,0 1.3,-1.2 0.7,-2.1c-0.6,-1 -1.3,-2.4 -2.4,-3.5c-1,-0.9 -2.3,-1.8 -3.2,-2z" class="st93"/>
  <path fill="#58595b" id="svg_19" d="m124.7,215.3c0.6,0 1.3,-0.7 1.3,-3.1c0,-2.5 -0.5,-3.4 -1.4,-3.4c-0.9,0.1 -1.5,0.9 -1.5,3.1c-0.1,2.3 0.5,3.4 1.6,3.4z" class="st93"/>
  <path fill="#58595b" id="svg_20" d="m114.6,70.9c-1.5,-1.1 -3.2,-1.6 -4.8,-2.5c-1.8,-1 -3.1,-2.6 -4.5,-4.1c-2.4,-2.6 -3.9,-6.1 -4.4,-9.6c-0.6,-3.7 -1.2,-7.6 -1.5,-11.5c-0.3,-3.9 0.9,-7.7 1.6,-11.5c0.2,-1 0.3,-2.1 0.5,-3.1l0.1,-0.8l0,-0.2l0,-0.1l0,-0.2c0,-0.3 0.1,-0.6 0.2,-0.8c0.2,0 0.4,0 0.6,0.1c0.1,0 0.2,0.1 0.3,0.1l0.5,0.2c0.7,0.4 1.4,0.8 2,1.4c2,1.8 4.6,2.5 6.7,4.2c1.3,1 2.6,1.7 4,2.5c1.8,1.1 3.2,2.7 5,3.8c3.3,2.2 6.2,4.9 8.6,8c1.9,2.5 3.1,5.2 4.5,7.7c0.9,1.6 1.3,3.3 1.4,5.1c0,0.9 0,1.7 -0.1,2.6c-0.1,0.4 -0.1,0.9 -0.2,1.3l-0.1,0.3c0,0.1 0,0 0,0.1c-0.1,0.2 -0.2,0.4 -0.2,0.5c-1.3,2.6 -3.8,4.7 -6.6,6.4c-0.8,0.5 -1.7,0.9 -2.6,1.3l-0.7,0.3c-0.1,0 -0.3,0.1 -0.5,0.2l-0.5,0.2l-1.1,0.4l-0.6,0.2c-0.1,0 -0.2,0.1 -0.3,0.1l0,0.3l-0.1,2.5l-0.1,1.5c0,1 0,2 0,3.1c0.2,7.5 0.7,15 0.2,22.5c-0.3,3.7 0,7.3 0,11c0,4 -0.3,8 0.1,12c0.4,3.8 -0.1,7.7 -0.2,11.5c-0.1,4 0.7,8 0,12c-1,6 -0.1,12 0.3,18c0.1,1.7 -0.1,3.5 0.3,5.2c0.1,0.3 0.1,2 1.4,2c1.5,0 1.4,-1.5 1.5,-1.9c0.4,-3.6 -0.3,-7.4 -0.5,-11c-0.2,-3.6 0.5,-7.2 0.2,-10.8c-0.3,-3.8 -0.1,-7.6 0,-11.4c0.2,-8.1 -0.5,-16.1 -0.1,-24.2c0.2,-3.9 0.5,-7.8 0.4,-11.7c-0.1,-3.6 0.3,-7.2 0,-10.7c-0.4,-4 -0.1,-8 -0.2,-12.1c0,-1.6 0.1,-3.2 0.2,-4.7l0,-0.3c0,0 0,0 0,0c0,0 0,0 0,0c0,0 0,0 0,0c0,0 0.1,0 0.1,0c0.1,0 0.2,-0.1 0.2,-0.1l0.1,0l0.3,-0.1l0.5,-0.3c1.7,-1 3.4,-1.7 5.1,-2.6c1,-0.6 1.8,-1.3 2.6,-2.1c0.8,-0.8 1.5,-1.7 2.2,-2.6c0.7,-0.9 1.3,-1.8 1.7,-3c0.1,-0.5 0.1,-0.7 0.2,-0.9c0.1,-0.3 0.1,-0.5 0.1,-0.8c0.1,-0.5 0.1,-1.1 0.1,-1.6c0,-2.1 -0.5,-4.2 -1.2,-6.2c-0.7,-1.9 -1.4,-3.9 -2.3,-5.7c-0.9,-1.8 -2,-3.6 -3.5,-5c-2.9,-2.8 -5.7,-5.7 -8.7,-8.4c-3,-2.7 -6.5,-4.8 -10,-6.7c-1.8,-1 -3.5,-2.1 -5.3,-3.2c-0.9,-0.5 -1.8,-1.1 -2.7,-1.5l-0.7,-0.4c-0.3,-0.1 -0.4,-0.2 -0.9,-0.4c-0.8,-0.3 -1.7,-0.7 -2.4,-0.6c-0.2,0 -0.4,0 -0.6,0.1c-0.3,0.2 -0.6,0.4 -0.8,0.7c-0.2,0.3 -0.4,0.7 -0.5,1.1c-0.2,0.4 -0.3,0.8 -0.4,1.2c-0.1,0.3 -0.1,0.5 -0.2,0.8c-0.2,1 -0.4,1.9 -0.6,2.9c-0.3,1.9 -0.6,3.8 -1,5.7c-0.8,4 -0.9,8.1 -0.2,12.1c0.7,3.9 1.2,7.9 2.6,11.7c1.3,3.8 3.7,7.6 7.2,9.9c1.4,1 2.9,1.9 4.4,2.7c0.7,0.4 1.5,0.7 2.3,0.9c1.3,0.4 2.4,0.4 2.7,-0.5c0.6,-1.2 -0.5,-2.1 -1.1,-2.5c-0.6,-0.4 0.6,0.4 0,0z" class="st93"/>
  <path fill="#58595b" id="svg_21" d="m148.3,114.8c1.5,0.5 3.2,0.4 4.7,0.4c0.9,0 1.8,0 2.7,0c0.9,0 1.8,0 2.7,-0.1c3.1,-0.3 6.1,-0.7 9.2,-1.2c3.2,-0.7 6.5,-2 9.3,-3.7c2.7,-1.8 5.7,-3.4 8,-5.9c1.1,-1.1 2.1,-2.4 2.9,-3.8c0.9,-1.3 1.7,-2.7 2.7,-3.9c1.4,-1.8 2,-4 2.9,-6c0.5,-1.2 0.8,-2.5 1,-3.8c0.2,-0.9 0.4,-1.7 0.6,-2.6l0.1,-0.7l0.2,-1.2c0.3,-0.5 -0.4,-0.5 -0.7,-0.7l-0.5,-0.2l-0.3,-0.1c-3.1,-1.3 -6.2,-2.2 -9.4,-3.1c-1.3,-0.3 -2.5,-0.7 -3.8,-0.9c-0.6,-0.1 -1.3,-0.2 -1.9,-0.3c-0.6,-0.1 -1.3,-0.1 -1.9,-0.1c-1.6,-0.1 -3.2,0 -4.7,0c-1.6,0.1 -3.2,0.1 -4.7,0.4c-2.9,0.3 -5.7,1.2 -8.3,2.3c-0.8,0.4 -1.6,0.6 -2.3,1l-2.3,1.1l-2.5,1.3c-0.7,0.4 -1.4,1 -2.1,1.5c-5,3.9 -8.5,9.3 -10.9,15c-1.2,2.8 -1.8,5.8 -2.3,8.8c-0.3,2 0.2,3.3 0.4,3.3c0.2,0 0.7,-0.2 0.9,-2c0.4,-3.1 1.3,-6.1 2.3,-9c0.9,-2.7 2.4,-5.2 3.9,-7.5c1.7,-2.7 4,-5 6.5,-7c0.5,-0.4 1,-0.7 1.5,-1.1c0.5,-0.3 1.1,-0.6 1.6,-0.9c1.1,-0.6 2.2,-1.1 3.2,-1.8c0.6,-0.4 1.3,-0.6 1.9,-0.9l1,-0.4c0.3,-0.1 0.7,-0.2 1,-0.3c0.8,-0.2 1.5,-0.5 2.3,-0.8c0.8,-0.2 1.6,-0.5 2.4,-0.6c3,-0.4 6.1,-0.7 9.2,-0.8c3.1,0 6.1,0.9 9.1,1.4c3.1,0.5 6.1,1.6 8.9,3.1l0.4,0.2l0.1,0.1l-0.1,0.6c-0.1,0.8 -0.3,1.6 -0.4,2.3c-0.3,1.5 -0.7,3.1 -1.2,4.6c-1,3.1 -2.7,5.9 -4.6,8.5c-0.5,0.6 -0.9,1.3 -1.4,1.9l-0.7,0.9l-0.8,0.9l-1.6,1.7c-0.6,0.6 -1.2,1 -1.9,1.5c-1.2,1 -2.6,1.7 -3.9,2.6c-0.7,0.4 -1.4,0.7 -2.1,1.1c-0.7,0.4 -1.4,0.8 -2.1,1.1c-0.7,0.3 -1.4,0.6 -2.1,0.9c-0.7,0.3 -1.5,0.4 -2.2,0.7c-0.4,0.1 -0.7,0.2 -1.1,0.3l-1.1,0.2c-0.8,0.1 -1.5,0.3 -2.3,0.4c-3.1,0.4 -6.2,0.4 -9.3,0.5c-0.6,0 -1.3,0 -1.9,0c-0.6,0 -1.3,-0.1 -1.9,-0.1c-0.6,-0.1 -1.2,-0.1 -1.9,-0.1c-1.1,0 -1.9,0 -2,0.4c-0.1,0 1,0.5 1.6,0.6c0.6,0.2 -0.6,-0.1 0,0z" class="st93"/>
  <path fill="#58595b" id="svg_22" d="m101.1,134.4c-1.5,0 -3.1,0.3 -4.6,0.5c-0.9,0.1 -1.7,0.1 -2.6,0.1c-0.9,0 -1.7,-0.1 -2.6,-0.1c-3,0 -6,-0.6 -8.8,-1.4c-3,-1 -6.1,-2 -8.9,-3.4c-2.8,-1.4 -5.3,-3.5 -7.5,-5.8c-1.1,-1 -2.3,-2 -3.2,-3.2c-1,-1.2 -1.9,-2.5 -2.4,-3.9c-0.7,-2 -1.9,-3.8 -2.5,-5.9c-0.3,-1.2 -0.8,-2.4 -1.1,-3.6c-0.2,-0.8 -0.4,-1.7 -0.5,-2.5l-0.1,-0.6l0,-0.1c0,-0.1 0,0 0,-0.1l0,0l0.3,-0.1c2.8,-1.6 5.9,-2.5 9,-3.3c1.3,-0.2 2.5,-0.5 3.7,-0.6c0.6,-0.1 1.2,-0.1 1.9,-0.2c0.6,-0.1 1.2,-0.1 1.9,-0.2c1.5,-0.3 3,-0.2 4.6,-0.2c1.5,0.2 3,0.3 4.5,0.6c2.8,0.4 5.4,1.1 8,2c0.8,0.3 1.5,0.5 2.3,0.9l2.1,1.1l2,1.3c0.7,0.4 1.3,1 2,1.4c4.8,3.5 8.6,8.5 10.4,14.1c0.9,2.8 1.7,5.5 2.2,8.4c0.3,1.9 0.9,3.1 1.1,3.1c0.2,0 0.7,-0.3 0.6,-2.2c-0.3,-3.2 -0.9,-6.4 -2,-9.5c-1,-2.8 -2.2,-5.6 -4,-8c-2,-2.7 -4.3,-5.2 -6.9,-7.3c-0.5,-0.4 -1,-0.8 -1.6,-1.2c-0.5,-0.4 -1.1,-0.8 -1.6,-1.1c-1.1,-0.8 -2.3,-1.4 -3.4,-1.8c-0.7,-0.3 -1.4,-0.5 -2.1,-0.8l-1,-0.4c-0.3,-0.1 -0.7,-0.3 -1.1,-0.4c-0.8,-0.3 -1.6,-0.5 -2.4,-0.6c-0.8,-0.1 -1.7,-0.3 -2.5,-0.5c-3.1,-0.7 -6.3,-0.9 -9.5,-0.7c-3.1,0.3 -6.4,0.2 -9.5,1.2c-3,1 -6.2,1.9 -9.1,3.2l-1.6,0.7l0.1,1l0.1,0.8c0.1,0.8 0.3,1.6 0.5,2.4c0.4,1.6 0.9,3.1 1.5,4.7c1.2,3.1 2.5,6.2 4.5,9c0.5,0.6 1,1.3 1.5,1.9l0.8,0.9l0.9,0.8l1.8,1.7c0.6,0.6 1.3,1 1.9,1.6c1.2,1.1 2.6,2 4,2.8c0.7,0.4 1.5,0.7 2.2,1.1c0.7,0.3 1.5,0.7 2.3,0.9c0.8,0.2 1.5,0.5 2.3,0.8l2.3,0.7l1.1,0.4l1.2,0.3c0.8,0.2 1.5,0.4 2.3,0.6c3.1,0.7 6.3,1 9.5,0.8c0.7,0 1.3,-0.1 2,-0.1c0.7,0 1.3,-0.1 2,-0.1c0.6,0 1.3,-0.1 1.9,-0.3c1.1,-0.2 1.8,-0.6 1.8,-1c-0.3,-0.6 -1.4,-0.6 -2,-0.6c-0.6,0 0.6,0 0,0z" class="st93"/>
  <path fill="#58595b" id="svg_23" d="m165,90.4c-2.3,1 -6.3,3.1 -9.2,5.1c-2.8,1.9 -5.4,4.1 -8.1,6.2c-2.7,2.1 -5.2,4.5 -7.4,7.1c-4.3,5.1 -9,10 -12.1,16c-0.6,1.2 -1.3,2.5 -1.9,3.7c-0.3,0.6 -0.6,1.2 -0.8,1.9c-0.4,1.1 -0.6,1.9 -0.2,2.1c0.4,0.2 1.1,-0.8 1.5,-1.3c0.3,-0.5 -0.4,0.6 0,0c0.9,-1.4 1.5,-2.9 2.2,-4.4c0.8,-1.7 1.8,-3.2 2.8,-4.8c1.6,-2.7 3.5,-5.3 5.7,-7.7c2.3,-2.5 4.5,-5.1 6.8,-7.6c2.3,-2.5 5.1,-4.4 7.8,-6.5c2.5,-2 6.1,-4.7 8,-5.6c1.6,-0.8 5.2,-2.8 6.1,-3.1c0.5,-0.2 3.1,-1.6 2.9,-2.1c-0.4,-0.5 -1.9,-0.1 -4.1,1z" class="st93"/>
  <path fill="#58595b" id="svg_24" d="m84.5,116.4c2,0.8 5.5,2.4 8.2,3.8c2.6,1.3 5.3,2.6 7.7,4.3c2.4,1.8 4.7,3.5 7.1,5.3c4.6,3.5 8,8.4 11.6,12.8c0.8,0.9 1.5,1.9 2.1,2.9c0.3,0.5 0.7,1 1,1.4c0.6,0.8 1.1,1.3 1.5,1.1c0.4,-0.2 0,-1.2 -0.2,-1.8c-0.2,-0.5 0.2,0.6 0,0c-0.6,-1.3 -1.6,-2.5 -2.5,-3.6c-1,-1.3 -1.9,-2.7 -3,-3.9c-1.9,-2.1 -3.7,-4.3 -5.6,-6.4c-2,-2.3 -4.5,-4.2 -6.9,-5.9c-2.5,-1.7 -4.8,-3.7 -7.4,-5.3c-2.5,-1.5 -6.2,-3 -7.8,-4c-1.3,-0.9 -4.8,-2.1 -5.6,-2.5c-0.4,-0.3 -3,-0.9 -3.2,-0.4c-0.2,0.8 1,1.4 3,2.2z" class="st93"/>
  <path fill="#58595b" id="svg_25" d="m145.2,52.5c0.8,-2.1 1.1,-4.4 1.2,-6.5c0.1,-2.2 0,-4.4 0,-6.5c0,-2.1 0,-4.3 -0.1,-6.4c-0.1,-1.1 -0.1,-2.1 -0.3,-3.2c-0.1,-0.5 -0.1,-1.1 -0.2,-1.6l-0.1,-0.6l-0.1,-0.7c0,-0.2 -0.1,-0.5 -0.2,-0.7c-0.1,-0.2 -0.1,-0.4 -0.3,-0.6l-0.3,-0.4c-0.5,-0.2 -0.9,-0.4 -1.6,-0.3c-0.3,0 -0.6,0.2 -1,0.2l-0.9,0.3c-0.8,0.3 -1.5,0.6 -2.2,0.8c-1.4,0.6 -2.9,1.2 -4.2,2c-0.8,0.5 -2.2,1.1 -3.5,1.9c-1.2,0.8 -2.4,1.8 -2.7,2.8c-0.4,1.4 0.5,1.3 1.6,0.9c2.6,-1 5,-2.6 7.6,-3.8c1.1,-0.5 2.2,-1 3.2,-1.4l0.8,-0.3l0.4,-0.1c0.1,0 0.1,0 0.1,0l0,0c0,0 0.1,0 0.1,0c0,0 0,0 0,0.1l0.1,1.2c0.1,1 0.2,2 0.3,2.9c0.1,2 0.3,4 0.3,5.9c0.1,2.5 0,4.9 -0.2,7.4c-0.2,2.4 -0.5,4.8 -0.9,7.1c-0.1,0.5 -0.3,1.3 -0.3,1.9c0,0.6 0.2,1.1 1.2,0.8c0.6,-0.2 1.1,-0.9 1.5,-1.6c0.4,-0.7 0.6,-1.6 0.8,-2.1c-0.1,0.3 -0.2,0.6 -0.3,0.9c0.1,0 0.2,-0.1 0.2,-0.3c0.7,-1.9 0.5,-1.5 0.3,-0.8c-0.2,0.7 -0.6,1.6 -0.3,0.8z" class="st93"/>
  <path fill="#58595b" id="svg_26" d="m132.6,31.4c0.2,-0.1 0.3,-0.8 -0.4,-2.5c-0.8,-1.6 -2.3,-4.2 -5.6,-7.6c-0.8,-0.8 -1.6,-1.6 -2.4,-2.3c-0.1,-0.1 -0.2,-0.2 -0.3,-0.3c-0.2,-0.1 -0.4,-0.3 -0.6,-0.4c-0.4,-0.2 -0.8,-0.3 -1.2,-0.4c-0.4,0 -0.8,0.1 -1.1,0.4c-0.2,0.1 -0.3,0.2 -0.5,0.3c-0.2,0.1 -0.2,0.2 -0.3,0.2c-1.3,1.1 -2.2,2.1 -2.8,3c-1.2,1.7 -1.3,2.7 -0.9,2.9c0.4,0.2 1.1,-0.3 2.5,-1.4c0.7,-0.6 1.6,-1.3 2.7,-2.1c0.1,-0.1 0.3,-0.2 0.4,-0.3c0,0 0,0 0,0c0,0 0,0 0,0c0,0 0,0 0,0l0.1,0.1l0.2,0.2c0.2,0.1 0.3,0.3 0.5,0.4c0.3,0.3 0.7,0.6 1,1c2.8,2.8 4.8,5.1 6.1,6.6c1.4,1.7 2.1,2.4 2.6,2.2z" class="st93"/>
  <path fill="#ffffff" id="svg_27" d="m183.6,175.4c-1.7,0.1 -3.4,-0.3 -4.8,-1.4c-1.4,-1 -2.4,-2.6 -2.5,-4.3c-0.2,-1.7 0.3,-3.4 1.4,-4.7c1.1,-1.3 2.6,-2.2 4.3,-2.4c1.3,-0.2 2.6,0 3.7,0.6c1.1,0.6 2.1,1.5 2.7,2.6c0.4,0.7 0.8,1.8 0.8,3c0.1,1.2 -0.2,2.3 -0.2,3.1c-0.1,1.1 0.4,0.7 1,-0.3c0.7,-1.2 0.9,-2.7 0.6,-4.2c-0.3,-1.5 -1,-2.8 -2,-3.9c-0.5,-0.6 -1.2,-1.1 -1.9,-1.5c-0.7,-0.4 -1.4,-0.7 -2.2,-0.9c-1.6,-0.4 -3.2,-0.3 -4.8,0.3c-1.5,0.6 -2.8,1.6 -3.7,3c-0.9,1.3 -1.4,3 -1.3,4.6c0,2.5 1.3,5 3.3,6.5c2,1.5 4.8,1.9 7.1,0.9c0.5,-0.2 1.3,-0.6 1.7,-1c0.4,-0.4 0.5,-0.7 -0.2,-0.7c-0.4,0 -1,0.2 -1.6,0.4c-0.6,0.2 -1.2,0.3 -1.7,0.3c0.2,0 0.5,0 0.7,0l-0.4,0c-1.5,0 -1.2,-0.1 -0.7,0c0.6,0 1.4,0 0.7,0z" class="st93"/>
  <path fill="#ffffff" id="svg_28" d="m198.967291,132.07757c0.1,0.7 0.1,1.4 -0.1,2c-0.2,0.6 -0.7,1.2 -1.4,1.5c-1.4,0.5 -2.9,-0.3 -3.5,-1.6c-0.5,-1 -0.1,-2.2 0.7,-2.9c0.2,-0.2 0.7,-0.5 1.1,-0.6c0.5,-0.1 0.9,-0.2 1.3,-0.4c0.5,-0.3 0.4,-0.6 -0.2,-0.9c-0.7,-0.3 -1.5,-0.2 -2.2,0.1c-0.7,0.3 -1.3,0.9 -1.7,1.5c-1,1.4 -1,3.4 0,4.8c1,1.4 2.9,2.2 4.5,1.7c1.3,-0.3 2.4,-1.3 2.9,-2.5c0.5,-1.2 0.3,-2.7 -0.5,-3.7c-0.2,-0.2 -0.5,-0.5 -0.8,-0.6c-0.3,-0.1 -0.5,0 -0.5,0.5c0,0.5 0.4,1.1 0.4,1.4c0,-0.1 0,-0.2 -0.1,-0.3l0.1,0c0.1,0.6 0,0.5 0,0.3c0,-0.2 -0.1,-0.5 0,-0.3z" class="st93"/>
  <path fill="#ff0000" id="svg_29" d="m61.2,218.5c-0.1,0 -0.2,0.1 -0.3,0.5c-0.1,0.4 -0.3,1.2 0,2.2c0.3,1 1,2.5 2.9,3.3c0.9,0.4 2,0.6 3.2,0.3c1.2,-0.3 2.5,-1 3.3,-2.3c0.8,-1.3 1,-2.8 0.7,-4c-0.3,-1.2 -0.9,-2.3 -1.7,-2.9c-1.6,-1.4 -3.5,-1.4 -4.6,-1.1c-1.2,0.3 -1.9,0.9 -2.2,1.4c-0.3,0.4 -0.4,0.7 -0.3,0.7c0.1,0.1 0.3,-0.1 0.7,-0.3c0.4,-0.2 1,-0.6 2,-0.8c0.9,-0.1 2.2,0 3.3,0.9c0.6,0.4 1,1.1 1.3,1.9c0.3,0.8 0.3,1.8 -0.1,2.7c-0.4,0.9 -1,1.6 -1.8,2c-0.8,0.4 -1.6,0.6 -2.3,0.5c-1.5,-0.2 -2.6,-1.1 -3.1,-1.9c-0.6,-0.9 -0.7,-1.7 -0.7,-2.3c-0.2,-0.5 -0.2,-0.8 -0.3,-0.8z" class="st93"/>
  <path fill="#ff0000" id="svg_30" d="m180.82243,39.07757c0,0 -0.2,0 -0.5,0.2c-0.2,0.2 -0.6,0.7 -0.8,1.5c-0.2,0.8 -0.2,2.1 0.7,3.3c0.5,0.6 1.2,1.1 2.1,1.4c0.9,0.3 2.1,0.2 3.1,-0.4c1,-0.6 1.7,-1.5 1.9,-2.5c0.3,-0.9 0.2,-1.9 -0.2,-2.6c-0.6,-1.5 -1.9,-2.2 -2.8,-2.4c-0.9,-0.2 -1.6,0 -2,0.2c-0.4,0.2 -0.5,0.4 -0.4,0.5c0.1,0.3 0.8,-0.1 2.1,0.4c0.6,0.2 1.4,0.7 1.8,1.7c0.4,0.9 0.3,2.3 -0.7,3.2c-1.1,0.9 -2.5,0.8 -3.3,0.2c-0.9,-0.6 -1.3,-1.5 -1.3,-2.2c-0.1,-0.7 0.1,-1.3 0.2,-1.7c0.1,-0.4 0.2,-0.7 0.1,-0.8z" class="st93"/>
 </g>
</svg>