<?xml version="1.0" encoding="iso-8859-1"?>
<!-- Generator: Adobe Illustrator 19.0.0, SVG Export Plug-In . SVG Version: 6.00 Build 0)  -->
<svg version="1.1" id="Layer_1" xmlns="http://www.w3.org/2000/svg" xmlns:xlink="http://www.w3.org/1999/xlink" x="0px" y="0px"
	 viewBox="0 0 512 512" style="enable-background:new 0 0 512 512;" xml:space="preserve">
<polygon style="fill:#FFDB56;" points="139.485,503.04 21.751,503.04 21.751,82.425 139.454,215.023 "/>
<polygon style="fill:#FBA806;" points="104.836,176.04 104.836,503.04 21.783,503.04 21.783,503.04 139.485,503.04 139.485,215.075 
	"/>
<polygon style="fill:#F77935;" points="256.166,346.524 256.166,503.04 139.485,503.04 139.517,215.126 "/>
<polygon style="fill:#D9510D;" points="220.322,306.142 220.322,503.038 139.485,503.038 139.485,503.04 256.166,503.04 
	256.166,346.524 "/>
<polygon style="fill:#894BA2;" points="372.843,239.71 372.843,503.04 256.166,503.04 256.166,346.524 "/>
<polygon style="fill:#763794;" points="337,272.524 337,503.04 372.843,503.04 372.843,239.71 "/>
<polygon style="fill:#3FC8F2;" points="489.528,357.317 489.528,503.04 372.843,503.04 372.843,239.71 "/>
<polygon style="fill:#0DAACE;" points="453.683,321.188 453.683,503.038 372.843,503.038 372.843,503.04 489.528,503.04 
	489.528,357.317 "/>
<path d="M490.273,175.859c-0.02,0-0.038,0-0.059,0c-4.922,0-8.929,3.975-8.96,8.903l-0.078,12.183L379.203,94.165
	c-3.386-3.413-8.865-3.545-12.413-0.299L256.819,194.54L86.549,3.008c-3.289-3.699-8.951-4.032-12.652-0.743
	c-3.699,3.288-4.031,8.952-0.743,12.652l176.314,198.329c1.594,1.792,3.841,2.871,6.237,2.995c2.399,0.119,4.743-0.72,6.512-2.339
	l110.328-101.002l95.918,96.678l-12.098,0.076c-4.949,0.031-8.935,4.068-8.904,9.018c0.031,4.93,4.037,8.903,8.96,8.903
	c0.019,0,0.038,0,0.059,0l33.582-0.213c4.903-0.031,8.872-4,8.904-8.903l0.213-33.58
	C499.209,179.927,495.222,175.891,490.273,175.859z"/>
<path d="M379.205,233.399c-0.082-0.082-0.177-0.148-0.262-0.227c-0.173-0.161-0.349-0.317-0.535-0.465
	c-0.165-0.131-0.335-0.254-0.507-0.373c-0.183-0.124-0.368-0.244-0.562-0.356c-0.194-0.112-0.389-0.216-0.59-0.313
	c-0.102-0.049-0.192-0.111-0.295-0.157c-0.094-0.042-0.194-0.065-0.289-0.103c-0.208-0.084-0.418-0.157-0.631-0.225
	c-0.208-0.066-0.415-0.124-0.625-0.174c-0.208-0.05-0.417-0.09-0.628-0.124c-0.219-0.036-0.436-0.065-0.656-0.084
	c-0.209-0.018-0.417-0.029-0.627-0.032c-0.223-0.004-0.444,0-0.667,0.013c-0.208,0.012-0.413,0.031-0.621,0.057
	c-0.226,0.029-0.449,0.067-0.673,0.114c-0.198,0.041-0.395,0.087-0.591,0.141c-0.232,0.065-0.459,0.141-0.685,0.225
	c-0.109,0.041-0.222,0.063-0.33,0.108c-0.076,0.031-0.143,0.076-0.217,0.11c-0.22,0.098-0.434,0.209-0.646,0.325
	c-0.178,0.097-0.356,0.195-0.526,0.302c-0.19,0.121-0.372,0.254-0.553,0.391c-0.174,0.13-0.346,0.26-0.509,0.401
	c-0.06,0.053-0.127,0.092-0.185,0.146L256.829,333.768l-110.64-124.642L28.486,76.528c-2.471-2.784-6.405-3.75-9.883-2.429
	c-3.479,1.321-5.779,4.655-5.779,8.378V503.04c0,4.95,4.011,8.961,8.961,8.961h117.701h116.681h116.677h116.685
	c4.95,0,8.961-4.011,8.961-8.961V357.317c0-2.364-0.934-4.633-2.6-6.311L379.205,233.399z M247.205,494.079h-98.759v-104.78v-0.006
	c0-4.95-4.012-8.961-8.961-8.961c-4.95,0-8.961,4.011-8.961,8.961v0.006v104.78h-99.78V106.071l99.78,112.408V353.45v0.01
	c0,4.95,4.011,8.961,8.961,8.961c4.949,0,8.961-4.011,8.961-8.961v-0.01V238.67l98.759,111.258L247.205,494.079L247.205,494.079z
	 M480.567,494.079h-98.763v-56.751v-0.001c0-4.95-4.011-8.961-8.961-8.961s-8.961,4.011-8.961,8.961v0.001v56.751h-98.756v-143.61
	l98.756-90.405v141.424v0.002c0,4.95,4.011,8.961,8.961,8.961s8.961-4.011,8.961-8.961v-0.002V261.466l98.763,99.542V494.079z"/>
<g>
</g>
<g>
</g>
<g>
</g>
<g>
</g>
<g>
</g>
<g>
</g>
<g>
</g>
<g>
</g>
<g>
</g>
<g>
</g>
<g>
</g>
<g>
</g>
<g>
</g>
<g>
</g>
<g>
</g>
</svg>
